# xmcd CD database file
#
# Track frame offsets:
#	150
#	10828
#	23568
#	35694
#	49208
#	60674
#	69301
#	84105
#	94922
#	107180
#	117402
#	131324
#	141607
#	152258
#	162480
#	172152
#	183616
#	195023
#
# Disc length: 2721 seconds
#
# Revision: 0
# Processed by: cddbd v1.5.2PL0 Copyright (c) Steve Scherf et al.
# Submitted via: ACXtractor (MTCDDB.DLL V2003.12.21)
#
DISCID=ed0a9f12
DTITLE=Karen Lynne - Blue Mountain Rain
DYEAR=2000
DGENRE=Country
TTITLE0=My Heart Skips a Beat
TTITLE1=This Flower
TTITLE2=This Ring
TTITLE3=Pathway of Teardrops
TTITLE4=Dream of Me
TTITLE5=Big Ben
TTITLE6=Send me the Pillow
TTITLE7=Dreaming
TTITLE8=I Heard the Bluebirds Sing
TTITLE9=Homefire
TTITLE10=The Touch of God's Hand
TTITLE11=Wildwood Flower
TTITLE12=You're no Longer a Sweetheart of Mine
TTITLE13=You're Running Wild
TTITLE14=One Tear
TTITLE15=Blue
TTITLE16=Memories
TTITLE17=Parden Me
EXTD=ID3G:   2 YEAR: 2000
EXTT0=
EXTT1=
EXTT2=
EXTT3=
EXTT4=
EXTT5=
EXTT6=
EXTT7=
EXTT8=
EXTT9=
EXTT10=
EXTT11=
EXTT12=
EXTT13=
EXTT14=
EXTT15=
EXTT16=
EXTT17=
PLAYORDER=
